<svg width="24" height="15" viewBox="0 0 24 15" fill="none" xmlns="http://www.w3.org/2000/svg">
<path d="M0.78 12.26C1.23333 11.9 1.44 11.7333 1.4 11.76C2.70667 10.68 3.73333 9.79333 4.48 9.1C5.24 8.40667 5.88 7.68 6.4 6.92C6.92 6.16 7.18 5.42 7.18 4.7C7.18 4.15333 7.05333 3.72667 6.8 3.42C6.54667 3.11333 6.16667 2.96 5.66 2.96C5.15333 2.96 4.75333 3.15333 4.46 3.54C4.18 3.91333 4.04 4.44667 4.04 5.14H0.74C0.766667 4.00667 1.00667 3.06 1.46 2.3C1.92667 1.54 2.53333 0.979999 3.28 0.619999C4.04 0.259999 4.88 0.079999 5.8 0.079999C7.38667 0.079999 8.58 0.486666 9.38 1.3C10.1933 2.11333 10.6 3.17333 10.6 4.48C10.6 5.90667 10.1133 7.23333 9.14 8.46C8.16667 9.67333 6.92667 10.86 5.42 12.02H10.82V14.8H0.78V12.26ZM12.3258 7.5C12.3258 5.20667 12.7658 3.4 13.6458 2.08C14.5391 0.759999 15.9724 0.0999987 17.9458 0.0999987C19.9191 0.0999987 21.3458 0.759999 22.2258 2.08C23.1191 3.4 23.5658 5.20667 23.5658 7.5C23.5658 9.82 23.1191 11.64 22.2258 12.96C21.3458 14.28 19.9191 14.94 17.9458 14.94C15.9724 14.94 14.5391 14.28 13.6458 12.96C12.7658 11.64 12.3258 9.82 12.3258 7.5ZM20.2058 7.5C20.2058 6.15333 20.0591 5.12 19.7658 4.4C19.4724 3.66667 18.8658 3.3 17.9458 3.3C17.0258 3.3 16.4191 3.66667 16.1258 4.4C15.8324 5.12 15.6858 6.15333 15.6858 7.5C15.6858 8.40667 15.7391 9.16 15.8458 9.76C15.9524 10.3467 16.1658 10.8267 16.4858 11.2C16.8191 11.56 17.3058 11.74 17.9458 11.74C18.5858 11.74 19.0658 11.56 19.3858 11.2C19.7191 10.8267 19.9391 10.3467 20.0458 9.76C20.1524 9.16 20.2058 8.40667 20.2058 7.5Z" fill="black"/>
</svg>
